<svg xmlns="http://www.w3.org/2000/svg" version="1.1" baseProfile="full" width="800" height="480" style="user-select: none; position: absolute; left: 0px; top: 0px;">
<g>
<rect width="800" height="480" x="0" y="0" id="0" style="fill: transparent;">
</rect>
</g>
<g>
<path d="M 75.3516 436 L 709.9766 436 L 709.9766 379.3333 L 75.3516 379.3333 L 75.3516 436 Z" fill="rgba(250,250,250,0.1)" fill-opacity="1" stroke="none" clip-path="none">
</path>
<path d="M 75.3516 379.3333 L 709.9766 379.3333 L 709.9766 322.6666 L 75.3516 322.6666 L 75.3516 379.3333 Z" fill="rgba(200,200,200,0.1)" fill-opacity="1" stroke="none" clip-path="none">
</path>
<path d="M 75.3516 322.6667 L 709.9766 322.6667 L 709.9766 266 L 75.3516 266 L 75.3516 322.6667 Z" fill="rgba(250,250,250,0.1)" fill-opacity="1" stroke="none" clip-path="none">
</path>
<path d="M 75.3516 266 L 709.9766 266 L 709.9766 209.3333 L 75.3516 209.3333 L 75.3516 266 Z" fill="rgba(200,200,200,0.1)" fill-opacity="1" stroke="none" clip-path="none">
</path>
<path d="M 75.3516 209.3333 L 709.9766 209.3333 L 709.9766 152.66660000000002 L 75.3516 152.66660000000002 L 75.3516 209.3333 Z" fill="rgba(250,250,250,0.1)" fill-opacity="1" stroke="none" clip-path="none">
</path>
<path d="M 75.3516 152.6667 L 709.9766 152.6667 L 709.9766 96 L 75.3516 96 L 75.3516 152.6667 Z" fill="rgba(200,200,200,0.1)" fill-opacity="1" stroke="none" clip-path="none">
</path>
<path d="M 75.3516 436.5 L 709.9766 436.5" fill="none" stroke="#eee" stroke-width="1" paint-order="fill" stroke-opacity="1" stroke-dasharray="" stroke-linecap="butt" stroke-linejoin="miter" stroke-miterlimit="10" clip-path="none">
</path>
<path d="M 75.3516 379.5 L 709.9766 379.5" fill="none" stroke="#eee" stroke-width="1" paint-order="fill" stroke-opacity="1" stroke-dasharray="" stroke-linecap="butt" stroke-linejoin="miter" stroke-miterlimit="10" clip-path="none">
</path>
<path d="M 75.3516 322.5 L 709.9766 322.5" fill="none" stroke="#eee" stroke-width="1" paint-order="fill" stroke-opacity="1" stroke-dasharray="" stroke-linecap="butt" stroke-linejoin="miter" stroke-miterlimit="10" clip-path="none">
</path>
<path d="M 75.3516 266.5 L 709.9766 266.5" fill="none" stroke="#eee" stroke-width="1" paint-order="fill" stroke-opacity="1" stroke-dasharray="" stroke-linecap="butt" stroke-linejoin="miter" stroke-miterlimit="10" clip-path="none">
</path>
<path d="M 75.3516 209.5 L 709.9766 209.5" fill="none" stroke="#eee" stroke-width="1" paint-order="fill" stroke-opacity="1" stroke-dasharray="" stroke-linecap="butt" stroke-linejoin="miter" stroke-miterlimit="10" clip-path="none">
</path>
<path d="M 75.3516 152.5 L 709.9766 152.5" fill="none" stroke="#eee" stroke-width="1" paint-order="fill" stroke-opacity="1" stroke-dasharray="" stroke-linecap="butt" stroke-linejoin="miter" stroke-miterlimit="10" clip-path="none">
</path>
<path d="M 75.3516 96.5 L 709.9766 96.5" fill="none" stroke="#eee" stroke-width="1" paint-order="fill" stroke-opacity="1" stroke-dasharray="" stroke-linecap="butt" stroke-linejoin="miter" stroke-miterlimit="10" clip-path="none">
</path>
<path d="M 75.3516 436 L 709.9766 436 L 709.9766 368 L 75.3516 368 L 75.3516 436 Z" fill="rgba(250,250,250,0.1)" fill-opacity="1" stroke="none" clip-path="none">
</path>
<path d="M 75.3516 368 L 709.9766 368 L 709.9766 300 L 75.3516 300 L 75.3516 368 Z" fill="rgba(200,200,200,0.1)" fill-opacity="1" stroke="none" clip-path="none">
</path>
<path d="M 75.3516 300 L 709.9766 300 L 709.9766 232 L 75.3516 232 L 75.3516 300 Z" fill="rgba(250,250,250,0.1)" fill-opacity="1" stroke="none" clip-path="none">
</path>
<path d="M 75.3516 232 L 709.9766 232 L 709.9766 164 L 75.3516 164 L 75.3516 232 Z" fill="rgba(200,200,200,0.1)" fill-opacity="1" stroke="none" clip-path="none">
</path>
<path d="M 75.3516 164 L 709.9766 164 L 709.9766 96 L 75.3516 96 L 75.3516 164 Z" fill="rgba(250,250,250,0.1)" fill-opacity="1" stroke="none" clip-path="none">
</path>
<path d="M 75.3516 436.5 L 709.9766 436.5" fill="none" stroke="#eee" stroke-width="1" paint-order="fill" stroke-opacity="1" stroke-dasharray="" stroke-linecap="butt" stroke-linejoin="miter" stroke-miterlimit="10" clip-path="none">
</path>
<path d="M 75.3516 368.5 L 709.9766 368.5" fill="none" stroke="#eee" stroke-width="1" paint-order="fill" stroke-opacity="1" stroke-dasharray="" stroke-linecap="butt" stroke-linejoin="miter" stroke-miterlimit="10" clip-path="none">
</path>
<path d="M 75.3516 300.5 L 709.9766 300.5" fill="none" stroke="#eee" stroke-width="1" paint-order="fill" stroke-opacity="1" stroke-dasharray="" stroke-linecap="butt" stroke-linejoin="miter" stroke-miterlimit="10" clip-path="none">
</path>
<path d="M 75.3516 232.5 L 709.9766 232.5" fill="none" stroke="#eee" stroke-width="1" paint-order="fill" stroke-opacity="1" stroke-dasharray="" stroke-linecap="butt" stroke-linejoin="miter" stroke-miterlimit="10" clip-path="none">
</path>
<path d="M 75.3516 164.5 L 709.9766 164.5" fill="none" stroke="#eee" stroke-width="1" paint-order="fill" stroke-opacity="1" stroke-dasharray="" stroke-linecap="butt" stroke-linejoin="miter" stroke-miterlimit="10" clip-path="none">
</path>
<path d="M 75.3516 96.5 L 709.9766 96.5" fill="none" stroke="#eee" stroke-width="1" paint-order="fill" stroke-opacity="1" stroke-dasharray="" stroke-linecap="butt" stroke-linejoin="miter" stroke-miterlimit="10" clip-path="none">
</path>
<path d="M 75.5 436 L 75.5 96" fill="none" stroke="#008acd" stroke-width="1" paint-order="fill" stroke-opacity="1" stroke-dasharray="" stroke-linecap="round" stroke-linejoin="miter" stroke-miterlimit="10" clip-path="none">
</path>
<text transform="matrix(1,2.4492937051703357e-16,-2.4492937051703357e-16,1,75.3515625,81)" fill="#008acd" fill-opacity="1" stroke="none" clip-path="none" style="font: 12px sans-serif;">
<tspan dominant-baseline="middle" text-anchor="middle" x="0" y="-6">Wahlbeteiligung</tspan>
</text>
<path d="M 710.5 436 L 710.5 96" fill="none" stroke="#008acd" stroke-width="1" paint-order="fill" stroke-opacity="1" stroke-dasharray="" stroke-linecap="round" stroke-linejoin="miter" stroke-miterlimit="10" clip-path="none">
</path>
<text transform="matrix(1,2.4492937051703357e-16,-2.4492937051703357e-16,1,709.9765625,81)" fill="#008acd" fill-opacity="1" stroke="none" clip-path="none" style="font: 12px sans-serif;">
<tspan dominant-baseline="middle" text-anchor="middle" x="0" y="-6">Abgegebene Stimmen</tspan>
</text>
<path d="M 75.3516 436.5 L 709.9766 436.5" fill="none" stroke="#008acd" stroke-width="1" paint-order="fill" stroke-opacity="1" stroke-dasharray="" stroke-linecap="round" stroke-linejoin="miter" stroke-miterlimit="10" clip-path="none">
</path>
<path d="M 75.3516 436.5 L 70.3516 436.5" fill="none" stroke="#008acd" stroke-width="1" paint-order="fill" stroke-opacity="1" stroke-dasharray="" stroke-linecap="butt" stroke-linejoin="miter" stroke-miterlimit="10" clip-path="none">
</path>
<path d="M 75.3516 379.5 L 70.3516 379.5" fill="none" stroke="#008acd" stroke-width="1" paint-order="fill" stroke-opacity="1" stroke-dasharray="" stroke-linecap="butt" stroke-linejoin="miter" stroke-miterlimit="10" clip-path="none">
</path>
<path d="M 75.3516 322.5 L 70.3516 322.5" fill="none" stroke="#008acd" stroke-width="1" paint-order="fill" stroke-opacity="1" stroke-dasharray="" stroke-linecap="butt" stroke-linejoin="miter" stroke-miterlimit="10" clip-path="none">
</path>
<path d="M 75.3516 266.5 L 70.3516 266.5" fill="none" stroke="#008acd" stroke-width="1" paint-order="fill" stroke-opacity="1" stroke-dasharray="" stroke-linecap="butt" stroke-linejoin="miter" stroke-miterlimit="10" clip-path="none">
</path>
<path d="M 75.3516 209.5 L 70.3516 209.5" fill="none" stroke="#008acd" stroke-width="1" paint-order="fill" stroke-opacity="1" stroke-dasharray="" stroke-linecap="butt" stroke-linejoin="miter" stroke-miterlimit="10" clip-path="none">
</path>
<path d="M 75.3516 152.5 L 70.3516 152.5" fill="none" stroke="#008acd" stroke-width="1" paint-order="fill" stroke-opacity="1" stroke-dasharray="" stroke-linecap="butt" stroke-linejoin="miter" stroke-miterlimit="10" clip-path="none">
</path>
<path d="M 75.3516 96.5 L 70.3516 96.5" fill="none" stroke="#008acd" stroke-width="1" paint-order="fill" stroke-opacity="1" stroke-dasharray="" stroke-linecap="butt" stroke-linejoin="miter" stroke-miterlimit="10" clip-path="none">
</path>
<path d="M 709.9766 436.5 L 714.9766 436.5" fill="none" stroke="#008acd" stroke-width="1" paint-order="fill" stroke-opacity="1" stroke-dasharray="" stroke-linecap="butt" stroke-linejoin="miter" stroke-miterlimit="10" clip-path="none">
</path>
<path d="M 709.9766 368.5 L 714.9766 368.5" fill="none" stroke="#008acd" stroke-width="1" paint-order="fill" stroke-opacity="1" stroke-dasharray="" stroke-linecap="butt" stroke-linejoin="miter" stroke-miterlimit="10" clip-path="none">
</path>
<path d="M 709.9766 300.5 L 714.9766 300.5" fill="none" stroke="#008acd" stroke-width="1" paint-order="fill" stroke-opacity="1" stroke-dasharray="" stroke-linecap="butt" stroke-linejoin="miter" stroke-miterlimit="10" clip-path="none">
</path>
<path d="M 709.9766 232.5 L 714.9766 232.5" fill="none" stroke="#008acd" stroke-width="1" paint-order="fill" stroke-opacity="1" stroke-dasharray="" stroke-linecap="butt" stroke-linejoin="miter" stroke-miterlimit="10" clip-path="none">
</path>
<path d="M 709.9766 164.5 L 714.9766 164.5" fill="none" stroke="#008acd" stroke-width="1" paint-order="fill" stroke-opacity="1" stroke-dasharray="" stroke-linecap="butt" stroke-linejoin="miter" stroke-miterlimit="10" clip-path="none">
</path>
<path d="M 709.9766 96.5 L 714.9766 96.5" fill="none" stroke="#008acd" stroke-width="1" paint-order="fill" stroke-opacity="1" stroke-dasharray="" stroke-linecap="butt" stroke-linejoin="miter" stroke-miterlimit="10" clip-path="none">
</path>
<path d="M 75.5 436 L 75.5 441" fill="none" stroke="#008acd" stroke-width="1" paint-order="fill" stroke-opacity="1" stroke-dasharray="" stroke-linecap="butt" stroke-linejoin="miter" stroke-miterlimit="10" clip-path="none">
</path>
<path d="M 154.5 436 L 154.5 441" fill="none" stroke="#008acd" stroke-width="1" paint-order="fill" stroke-opacity="1" stroke-dasharray="" stroke-linecap="butt" stroke-linejoin="miter" stroke-miterlimit="10" clip-path="none">
</path>
<path d="M 234.5 436 L 234.5 441" fill="none" stroke="#008acd" stroke-width="1" paint-order="fill" stroke-opacity="1" stroke-dasharray="" stroke-linecap="butt" stroke-linejoin="miter" stroke-miterlimit="10" clip-path="none">
</path>
<path d="M 313.5 436 L 313.5 441" fill="none" stroke="#008acd" stroke-width="1" paint-order="fill" stroke-opacity="1" stroke-dasharray="" stroke-linecap="butt" stroke-linejoin="miter" stroke-miterlimit="10" clip-path="none">
</path>
<path d="M 392.5 436 L 392.5 441" fill="none" stroke="#008acd" stroke-width="1" paint-order="fill" stroke-opacity="1" stroke-dasharray="" stroke-linecap="butt" stroke-linejoin="miter" stroke-miterlimit="10" clip-path="none">
</path>
<path d="M 472.5 436 L 472.5 441" fill="none" stroke="#008acd" stroke-width="1" paint-order="fill" stroke-opacity="1" stroke-dasharray="" stroke-linecap="butt" stroke-linejoin="miter" stroke-miterlimit="10" clip-path="none">
</path>
<path d="M 551.5 436 L 551.5 441" fill="none" stroke="#008acd" stroke-width="1" paint-order="fill" stroke-opacity="1" stroke-dasharray="" stroke-linecap="butt" stroke-linejoin="miter" stroke-miterlimit="10" clip-path="none">
</path>
<path d="M 630.5 436 L 630.5 441" fill="none" stroke="#008acd" stroke-width="1" paint-order="fill" stroke-opacity="1" stroke-dasharray="" stroke-linecap="butt" stroke-linejoin="miter" stroke-miterlimit="10" clip-path="none">
</path>
<path d="M 710.5 436 L 710.5 441" fill="none" stroke="#008acd" stroke-width="1" paint-order="fill" stroke-opacity="1" stroke-dasharray="" stroke-linecap="butt" stroke-linejoin="miter" stroke-miterlimit="10" clip-path="none">
</path>
<text transform="matrix(1,2.4492937051703357e-16,-2.4492937051703357e-16,1,67.3515625,436)" fill="#008acd" fill-opacity="1" stroke="none" clip-path="none" style="font: 12px sans-serif;">
<tspan dominant-baseline="middle" text-anchor="end" x="0" y="0">0 %</tspan>
</text>
<text transform="matrix(1,2.4492937051703357e-16,-2.4492937051703357e-16,1,67.3515625,379.3333435058594)" fill="#008acd" fill-opacity="1" stroke="none" clip-path="none" style="font: 12px sans-serif;">
<tspan dominant-baseline="middle" text-anchor="end" x="0" y="0">3 %</tspan>
</text>
<text transform="matrix(1,2.4492937051703357e-16,-2.4492937051703357e-16,1,67.3515625,322.6666564941406)" fill="#008acd" fill-opacity="1" stroke="none" clip-path="none" style="font: 12px sans-serif;">
<tspan dominant-baseline="middle" text-anchor="end" x="0" y="0">6 %</tspan>
</text>
<text transform="matrix(1,2.4492937051703357e-16,-2.4492937051703357e-16,1,67.3515625,266)" fill="#008acd" fill-opacity="1" stroke="none" clip-path="none" style="font: 12px sans-serif;">
<tspan dominant-baseline="middle" text-anchor="end" x="0" y="0">9 %</tspan>
</text>
<text transform="matrix(1,2.4492937051703357e-16,-2.4492937051703357e-16,1,67.3515625,209.3333282470703)" fill="#008acd" fill-opacity="1" stroke="none" clip-path="none" style="font: 12px sans-serif;">
<tspan dominant-baseline="middle" text-anchor="end" x="0" y="0">12 %</tspan>
</text>
<text transform="matrix(1,2.4492937051703357e-16,-2.4492937051703357e-16,1,67.3515625,152.66665649414062)" fill="#008acd" fill-opacity="1" stroke="none" clip-path="none" style="font: 12px sans-serif;">
<tspan dominant-baseline="middle" text-anchor="end" x="0" y="0">15 %</tspan>
</text>
<text transform="matrix(1,2.4492937051703357e-16,-2.4492937051703357e-16,1,67.3515625,96)" fill="#008acd" fill-opacity="1" stroke="none" clip-path="none" style="font: 12px sans-serif;">
<tspan dominant-baseline="middle" text-anchor="end" x="0" y="0">18 %</tspan>
</text>
<text transform="matrix(1,2.4492937051703357e-16,-2.4492937051703357e-16,1,717.9765625,436)" fill="#008acd" fill-opacity="1" stroke="none" clip-path="none" style="font: 12px sans-serif;">
<tspan dominant-baseline="middle" text-anchor="start" x="0" y="0">0 Tsd.</tspan>
</text>
<text transform="matrix(1,2.4492937051703357e-16,-2.4492937051703357e-16,1,717.9765625,368)" fill="#008acd" fill-opacity="1" stroke="none" clip-path="none" style="font: 12px sans-serif;">
<tspan dominant-baseline="middle" text-anchor="start" x="0" y="0">0.5 Tsd.</tspan>
</text>
<text transform="matrix(1,2.4492937051703357e-16,-2.4492937051703357e-16,1,717.9765625,300)" fill="#008acd" fill-opacity="1" stroke="none" clip-path="none" style="font: 12px sans-serif;">
<tspan dominant-baseline="middle" text-anchor="start" x="0" y="0">1 Tsd.</tspan>
</text>
<text transform="matrix(1,2.4492937051703357e-16,-2.4492937051703357e-16,1,717.9765625,232)" fill="#008acd" fill-opacity="1" stroke="none" clip-path="none" style="font: 12px sans-serif;">
<tspan dominant-baseline="middle" text-anchor="start" x="0" y="0">1.5 Tsd.</tspan>
</text>
<text transform="matrix(1,2.4492937051703357e-16,-2.4492937051703357e-16,1,717.9765625,164)" fill="#008acd" fill-opacity="1" stroke="none" clip-path="none" style="font: 12px sans-serif;">
<tspan dominant-baseline="middle" text-anchor="start" x="0" y="0">2 Tsd.</tspan>
</text>
<text transform="matrix(1,2.4492937051703357e-16,-2.4492937051703357e-16,1,717.9765625,96)" fill="#008acd" fill-opacity="1" stroke="none" clip-path="none" style="font: 12px sans-serif;">
<tspan dominant-baseline="middle" text-anchor="start" x="0" y="0">2.5 Tsd.</tspan>
</text>
<text transform="matrix(1,0,0,1,75.3515625,444)" fill="#008acd" fill-opacity="1" stroke="none" clip-path="none" style="font: 12px sans-serif;">
<tspan dominant-baseline="middle" text-anchor="middle" x="0" y="6">2005</tspan>
</text>
<text transform="matrix(1,0,0,1,154.6796875,444)" fill="#008acd" fill-opacity="1" stroke="none" clip-path="none" style="font: 12px sans-serif;">
<tspan dominant-baseline="middle" text-anchor="middle" x="0" y="6">2006</tspan>
</text>
<text transform="matrix(1,0,0,1,234.0078125,444)" fill="#008acd" fill-opacity="1" stroke="none" clip-path="none" style="font: 12px sans-serif;">
<tspan dominant-baseline="middle" text-anchor="middle" x="0" y="6">2008</tspan>
</text>
<text transform="matrix(1,0,0,1,313.3359375,444)" fill="#008acd" fill-opacity="1" stroke="none" clip-path="none" style="font: 12px sans-serif;">
<tspan dominant-baseline="middle" text-anchor="middle" x="0" y="6">2009</tspan>
</text>
<text transform="matrix(1,0,0,1,392.6640625,444)" fill="#008acd" fill-opacity="1" stroke="none" clip-path="none" style="font: 12px sans-serif;">
<tspan dominant-baseline="middle" text-anchor="middle" x="0" y="6">2010</tspan>
</text>
<text transform="matrix(1,0,0,1,471.9921875,444)" fill="#008acd" fill-opacity="1" stroke="none" clip-path="none" style="font: 12px sans-serif;">
<tspan dominant-baseline="middle" text-anchor="middle" x="0" y="6">2011</tspan>
</text>
<text transform="matrix(1,0,0,1,551.3203125,444)" fill="#008acd" fill-opacity="1" stroke="none" clip-path="none" style="font: 12px sans-serif;">
<tspan dominant-baseline="middle" text-anchor="middle" x="0" y="6">2012</tspan>
</text>
<text transform="matrix(1,0,0,1,630.6484375,444)" fill="#008acd" fill-opacity="1" stroke="none" clip-path="none" style="font: 12px sans-serif;">
<tspan dominant-baseline="middle" text-anchor="middle" x="0" y="6">2013</tspan>
</text>
<text transform="matrix(1,0,0,1,709.9765625,444)" fill="#008acd" fill-opacity="1" stroke="none" clip-path="none" style="font: 12px sans-serif;">
<tspan dominant-baseline="middle" text-anchor="middle" x="0" y="6">2014</tspan>
</text>
<path d="M 75.3516 168.216 C 75.3516 168.216 111.6655 208.0463 154.6797 219.624 C 190.9936 229.3983 197.7093 224.704 234.0078 210.92 C 277.0375 194.58 277.9479 159.376 313.3359 159.376 C 357.276 169.0937 345.6415 224.7255 392.6641 246.008 C 424.9697 246.008 432.447 239.1839 471.9922 231.184 C 511.7752 223.1359 513.1734 227.0245 551.3203 213.912 C 592.5015 199.7565 593.0348 172.1663 630.6484 176.648 C 672.3629 181.6183 709.9766 232.816 709.9766 232.816" fill="none" stroke="#2ec7c9" stroke-width="2" paint-order="fill" stroke-opacity="1" stroke-dasharray="" stroke-linecap="butt" stroke-linejoin="bevel" stroke-miterlimit="10" clip-path="url(#zr2322-clip-0)">
</path>
<path d="M 75.3516 116.6078 C 75.3516 116.6078 109.8664 163.8753 154.6797 182.3033 C 189.1946 196.4965 198.5925 194.9334 234.0078 181.85 C 277.9206 165.6273 279.244 116.6078 313.3359 123.6911 C 358.5722 136.6597 343.5062 198.6689 392.6641 227.3344 C 422.8344 227.3344 432.6167 223.3626 471.9922 216.2089 C 511.9448 208.9504 513.4508 212.3558 551.3203 198.51 C 592.7789 183.3519 592.5128 154.8459 630.6484 158.2011 C 671.8409 161.8253 709.9766 212.4689 709.9766 212.4689" fill="none" stroke="#b6a2de" stroke-width="2" paint-order="fill" stroke-opacity="1" stroke-dasharray="" stroke-linecap="butt" stroke-linejoin="bevel" stroke-miterlimit="10" clip-path="url(#zr2322-clip-1)">
</path>
<path d="M 1 0 A 1 1 0 1 0 1 0.0001" fill="#fff" fill-opacity="1" stroke="#2ec7c9" stroke-width="0.25" paint-order="fill" stroke-opacity="1" stroke-dasharray="" stroke-linecap="butt" stroke-linejoin="miter" stroke-miterlimit="10" transform="matrix(4,0,0,4,75.3515625,168.21600341796875)" clip-path="none">
</path>
<path d="M 1 0 A 1 1 0 1 0 1 0.0001" fill="#fff" fill-opacity="1" stroke="#2ec7c9" stroke-width="0.25" paint-order="fill" stroke-opacity="1" stroke-dasharray="" stroke-linecap="butt" stroke-linejoin="miter" stroke-miterlimit="10" transform="matrix(4,0,0,4,154.6796875,219.62399291992188)" clip-path="none">
</path>
<path d="M 1 0 A 1 1 0 1 0 1 0.0001" fill="#fff" fill-opacity="1" stroke="#2ec7c9" stroke-width="0.25" paint-order="fill" stroke-opacity="1" stroke-dasharray="" stroke-linecap="butt" stroke-linejoin="miter" stroke-miterlimit="10" transform="matrix(4,0,0,4,234.0078125,210.9199981689453)" clip-path="none">
</path>
<path d="M 1 0 A 1 1 0 1 0 1 0.0001" fill="#fff" fill-opacity="1" stroke="#2ec7c9" stroke-width="0.25" paint-order="fill" stroke-opacity="1" stroke-dasharray="" stroke-linecap="butt" stroke-linejoin="miter" stroke-miterlimit="10" transform="matrix(4,0,0,4,313.3359375,159.37600708007812)" clip-path="none">
</path>
<path d="M 1 0 A 1 1 0 1 0 1 0.0001" fill="#fff" fill-opacity="1" stroke="#2ec7c9" stroke-width="0.25" paint-order="fill" stroke-opacity="1" stroke-dasharray="" stroke-linecap="butt" stroke-linejoin="miter" stroke-miterlimit="10" transform="matrix(4,0,0,4,392.6640625,246.00799560546875)" clip-path="none">
</path>
<path d="M 1 0 A 1 1 0 1 0 1 0.0001" fill="#fff" fill-opacity="1" stroke="#2ec7c9" stroke-width="0.25" paint-order="fill" stroke-opacity="1" stroke-dasharray="" stroke-linecap="butt" stroke-linejoin="miter" stroke-miterlimit="10" transform="matrix(4,0,0,4,471.9921875,231.1840057373047)" clip-path="none">
</path>
<path d="M 1 0 A 1 1 0 1 0 1 0.0001" fill="#fff" fill-opacity="1" stroke="#2ec7c9" stroke-width="0.25" paint-order="fill" stroke-opacity="1" stroke-dasharray="" stroke-linecap="butt" stroke-linejoin="miter" stroke-miterlimit="10" transform="matrix(4,0,0,4,551.3203125,213.91200256347656)" clip-path="none">
</path>
<path d="M 1 0 A 1 1 0 1 0 1 0.0001" fill="#fff" fill-opacity="1" stroke="#2ec7c9" stroke-width="0.25" paint-order="fill" stroke-opacity="1" stroke-dasharray="" stroke-linecap="butt" stroke-linejoin="miter" stroke-miterlimit="10" transform="matrix(4,0,0,4,630.6484375,176.6479949951172)" clip-path="none">
</path>
<path d="M 1 0 A 1 1 0 1 0 1 0.0001" fill="#fff" fill-opacity="1" stroke="#2ec7c9" stroke-width="0.25" paint-order="fill" stroke-opacity="1" stroke-dasharray="" stroke-linecap="butt" stroke-linejoin="miter" stroke-miterlimit="10" transform="matrix(4,0,0,4,709.9765625,232.8159942626953)" clip-path="none">
</path>
<path d="M 1 0 A 1 1 0 1 0 1 0.0001" fill="#fff" fill-opacity="1" stroke="#b6a2de" stroke-width="0.25" paint-order="fill" stroke-opacity="1" stroke-dasharray="" stroke-linecap="butt" stroke-linejoin="miter" stroke-miterlimit="10" transform="matrix(4,0,0,4,75.3515625,116.60778045654297)" clip-path="none">
</path>
<path d="M 1 0 A 1 1 0 1 0 1 0.0001" fill="#fff" fill-opacity="1" stroke="#b6a2de" stroke-width="0.25" paint-order="fill" stroke-opacity="1" stroke-dasharray="" stroke-linecap="butt" stroke-linejoin="miter" stroke-miterlimit="10" transform="matrix(4,0,0,4,154.6796875,182.30332946777344)" clip-path="none">
</path>
<path d="M 1 0 A 1 1 0 1 0 1 0.0001" fill="#fff" fill-opacity="1" stroke="#b6a2de" stroke-width="0.25" paint-order="fill" stroke-opacity="1" stroke-dasharray="" stroke-linecap="butt" stroke-linejoin="miter" stroke-miterlimit="10" transform="matrix(4,0,0,4,234.0078125,181.85000610351562)" clip-path="none">
</path>
<path d="M 1 0 A 1 1 0 1 0 1 0.0001" fill="#fff" fill-opacity="1" stroke="#b6a2de" stroke-width="0.25" paint-order="fill" stroke-opacity="1" stroke-dasharray="" stroke-linecap="butt" stroke-linejoin="miter" stroke-miterlimit="10" transform="matrix(4,0,0,4,313.3359375,123.69110870361328)" clip-path="none">
</path>
<path d="M 1 0 A 1 1 0 1 0 1 0.0001" fill="#fff" fill-opacity="1" stroke="#b6a2de" stroke-width="0.25" paint-order="fill" stroke-opacity="1" stroke-dasharray="" stroke-linecap="butt" stroke-linejoin="miter" stroke-miterlimit="10" transform="matrix(4,0,0,4,392.6640625,227.33444213867188)" clip-path="none">
</path>
<path d="M 1 0 A 1 1 0 1 0 1 0.0001" fill="#fff" fill-opacity="1" stroke="#b6a2de" stroke-width="0.25" paint-order="fill" stroke-opacity="1" stroke-dasharray="" stroke-linecap="butt" stroke-linejoin="miter" stroke-miterlimit="10" transform="matrix(4,0,0,4,471.9921875,216.20889282226562)" clip-path="none">
</path>
<path d="M 1 0 A 1 1 0 1 0 1 0.0001" fill="#fff" fill-opacity="1" stroke="#b6a2de" stroke-width="0.25" paint-order="fill" stroke-opacity="1" stroke-dasharray="" stroke-linecap="butt" stroke-linejoin="miter" stroke-miterlimit="10" transform="matrix(4,0,0,4,551.3203125,198.50999450683594)" clip-path="none">
</path>
<path d="M 1 0 A 1 1 0 1 0 1 0.0001" fill="#fff" fill-opacity="1" stroke="#b6a2de" stroke-width="0.25" paint-order="fill" stroke-opacity="1" stroke-dasharray="" stroke-linecap="butt" stroke-linejoin="miter" stroke-miterlimit="10" transform="matrix(4,0,0,4,630.6484375,158.20111083984375)" clip-path="none">
</path>
<path d="M 1 0 A 1 1 0 1 0 1 0.0001" fill="#fff" fill-opacity="1" stroke="#b6a2de" stroke-width="0.25" paint-order="fill" stroke-opacity="1" stroke-dasharray="" stroke-linecap="butt" stroke-linejoin="miter" stroke-miterlimit="10" transform="matrix(4,0,0,4,709.9765625,212.46888732910156)" clip-path="none">
</path>
<path d="M -5 -5 L 335.0254 -5 L 335.0254 17.2 L -5 17.2 L -5 -5 Z" fill="rgba(0,0,0,0)" fill-opacity="1" stroke="#ccc" stroke-width="0" paint-order="fill" stroke-opacity="1" stroke-dasharray="" stroke-linecap="butt" stroke-linejoin="miter" stroke-miterlimit="10" transform="matrix(1,0,0,1,234.9873046875,53)" clip-path="none">
</path>
<path d="M 0 7 L 25 7" fill="#000" fill-opacity="1" stroke="#2ec7c9" stroke-width="1" paint-order="fill" stroke-opacity="1" stroke-dasharray="" stroke-linecap="butt" stroke-linejoin="miter" stroke-miterlimit="10" transform="matrix(1,0,0,1,235.4873046875,52.099998474121094)" clip-path="none">
</path>
<path d="M 18.1 7 A 5.6 5.6 0 1 0 18.1 7.0006" fill="#fff" fill-opacity="1" stroke="#2ec7c9" stroke-width="1" paint-order="fill" stroke-opacity="1" stroke-dasharray="" stroke-linecap="butt" stroke-linejoin="miter" stroke-miterlimit="10" transform="matrix(1,0,0,1,235.4873046875,52.099998474121094)" clip-path="none">
</path>
<text transform="matrix(1,0,0,1,235.4873046875,52.099998474121094)" fill="#333" fill-opacity="1" stroke="none" clip-path="none" style="font: 12px sans-serif;">
<tspan dominant-baseline="middle" text-anchor="start" x="30" y="7">Abgegebene Stimmen (Tsd.)</tspan>
</text>
<path d="M 0 7 L 25 7" fill="#000" fill-opacity="1" stroke="#b6a2de" stroke-width="1" paint-order="fill" stroke-opacity="1" stroke-dasharray="" stroke-linecap="butt" stroke-linejoin="miter" stroke-miterlimit="10" transform="matrix(1,0,0,1,428.0673828125,52.099998474121094)" clip-path="none">
</path>
<path d="M 18.1 7 A 5.6 5.6 0 1 0 18.1 7.0006" fill="#fff" fill-opacity="1" stroke="#b6a2de" stroke-width="1" paint-order="fill" stroke-opacity="1" stroke-dasharray="" stroke-linecap="butt" stroke-linejoin="miter" stroke-miterlimit="10" transform="matrix(1,0,0,1,428.0673828125,52.099998474121094)" clip-path="none">
</path>
<text transform="matrix(1,0,0,1,428.0673828125,52.099998474121094)" fill="#333" fill-opacity="1" stroke="none" clip-path="none" style="font: 12px sans-serif;">
<tspan dominant-baseline="middle" text-anchor="start" x="30" y="7">Wahlbeteiligung (%)</tspan>
</text>
<path d="M -237.4839 -5 L 237.4839 -5 L 237.4839 23 L -237.4839 23 L -237.4839 -5 Z" fill="rgba(0,0,0,0)" fill-opacity="1" stroke="#ccc" stroke-width="0" paint-order="fill" stroke-opacity="1" stroke-dasharray="" stroke-linecap="butt" stroke-linejoin="miter" stroke-miterlimit="10" transform="matrix(1,0,0,1,400,14.600000381469727)" clip-path="none">
</path>
<text transform="matrix(1,0,0,1,400,14.600000381469727)" fill="#008acd" fill-opacity="1" stroke="none" clip-path="none" style="font: 18px sans-serif;">
<tspan dominant-baseline="middle" text-anchor="middle" x="0" y="9">Beteiligung an den StuPa-Wahlen der Uni Trier 2005-2013</tspan>
</text>
<defs>
<clipPath id="zr2322-clip-0">
<path d="M 74 95 L 711 95 L 711 437 L 74 437 L 74 95 Z" fill="#000" fill-opacity="1" stroke="none">
</path>
</clipPath>
<clipPath id="zr2322-clip-1">
<path d="M 74 95 L 711 95 L 711 437 L 74 437 L 74 95 Z" fill="#000" fill-opacity="1" stroke="none">
</path>
</clipPath>
</defs>
</g>
</svg>