<?xml version="1.0" encoding="UTF-8" standalone="no"?>
<svg
   xmlns:dc="http://purl.org/dc/elements/1.1/"
   xmlns:cc="http://creativecommons.org/ns#"
   xmlns:rdf="http://www.w3.org/1999/02/22-rdf-syntax-ns#"
   xmlns:svg="http://www.w3.org/2000/svg"
   xmlns="http://www.w3.org/2000/svg"
   xmlns:sodipodi="http://sodipodi.sourceforge.net/DTD/sodipodi-0.dtd"
   xmlns:inkscape="http://www.inkscape.org/namespaces/inkscape"
   viewBox="0 0 314.975 72"
   version="1.1"
   id="svg82"
   sodipodi:docname="wiskom-logo.svg"
   inkscape:export-filename="/Users/cml/Nextcloud/hugo-test/test/content/projects/wissenschaftskommunikation-de/img/wiskom-logo.png"
   inkscape:export-xdpi="419"
   inkscape:export-ydpi="419"
   inkscape:version="1.0.1 (c497b03c, 2020-09-10)">
  <metadata
     id="metadata88">
    <rdf:RDF>
      <cc:Work
         rdf:about="">
        <dc:format>image/svg+xml</dc:format>
        <dc:type
           rdf:resource="http://purl.org/dc/dcmitype/StillImage" />
      </cc:Work>
    </rdf:RDF>
  </metadata>
  <defs
     id="defs86" />
  <sodipodi:namedview
     pagecolor="#ffffff"
     bordercolor="#666666"
     borderopacity="1"
     objecttolerance="10"
     gridtolerance="10"
     guidetolerance="10"
     inkscape:pageopacity="0"
     inkscape:pageshadow="2"
     inkscape:window-width="1680"
     inkscape:window-height="997"
     id="namedview84"
     showgrid="false"
     inkscape:zoom="1.841416"
     inkscape:cx="157.4875"
     inkscape:cy="36"
     inkscape:window-x="0"
     inkscape:window-y="25"
     inkscape:window-maximized="1"
     inkscape:current-layer="svg82" />
  <g
     fill="#fff"
     id="g68"
     style="fill:#000000">
    <path
       d="m92.361 30.825a.562.562 0 0 1 -.207-.311l-4.485-15.456a.328.328 0 0 1 -.023-.139.439.439 0 0 1 .138-.321.465.465 0 0 1 .345-.139h1.794a.582.582 0 0 1 .368.127.562.562 0 0 1 .207.311l3.427 11.823 3.289-11.82a.559.559 0 0 1 .207-.311.582.582 0 0 1 .368-.127h1.794a.582.582 0 0 1 .368.127.564.564 0 0 1 .207.311l3.427 11.822 3.289-11.822a.559.559 0 0 1 .207-.311.581.581 0 0 1 .368-.127h1.886a.43.43 0 0 1 .379.185.462.462 0 0 1 .058.414l-4.6 15.456a.5.5 0 0 1 -.218.321.667.667 0 0 1 -.379.115h-2.185a.58.58 0 0 1 -.368-.126.566.566 0 0 1 -.207-.311l-3.129-11.18-3.174 11.179a.5.5 0 0 1 -.219.321.665.665 0 0 1 -.379.115h-2.185a.582.582 0 0 1 -.368-.126z"
       id="path10"
       style="fill:#000000" />
    <path
       d="m112.325 30.767a.469.469 0 0 1 -.138-.346v-1.586a.471.471 0 0 1 .483-.482h1.955v-11.339h-1.955a.473.473 0 0 1 -.483-.483v-1.588a.473.473 0 0 1 .483-.483h6.716a.473.473 0 0 1 .483.483v1.587a.473.473 0 0 1 -.483.483h-1.955v11.339h1.955a.471.471 0 0 1 .483.482v1.587a.471.471 0 0 1 -.483.483h-6.716a.467.467 0 0 1 -.345-.137z"
       id="path12"
       style="fill:#000000" />
    <path
       d="m124.526 30.778a8.852 8.852 0 0 1 -2.242-1.115.376.376 0 0 1 -.161-.241.427.427 0 0 1 .023-.311l.805-1.449a.458.458 0 0 1 .437-.275.682.682 0 0 1 .345.092 6.141 6.141 0 0 0 3.22 1.081 2.9 2.9 0 0 0 1.92-.587 1.9 1.9 0 0 0 .7-1.529 1.61 1.61 0 0 0 -.345-1.047 2.88 2.88 0 0 0 -.92-.725q-.575-.3-1.679-.735l-.667-.276a8.562 8.562 0 0 1 -2.633-1.7 4.035 4.035 0 0 1 -1.069-3.036 4.825 4.825 0 0 1 .632-2.483 4.372 4.372 0 0 1 1.76-1.68 5.462 5.462 0 0 1 2.6-.6 7.655 7.655 0 0 1 2.427.4 7.772 7.772 0 0 1 2.173 1.116.378.378 0 0 1 .161.241.43.43 0 0 1 -.023.311l-.759 1.449a.458.458 0 0 1 -.437.275.68.68 0 0 1 -.345-.092 7.148 7.148 0 0 0 -1.714-.828 5.023 5.023 0 0 0 -1.46-.253 2.287 2.287 0 0 0 -1.633.563 2.016 2.016 0 0 0 .058 2.921 7.554 7.554 0 0 0 2.1 1.185q.207.069 1.575.633a5.033 5.033 0 0 1 2.174 1.645 4.155 4.155 0 0 1 .8 2.553 4.8 4.8 0 0 1 -.678 2.542 4.63 4.63 0 0 1 -1.9 1.736 6.1 6.1 0 0 1 -2.806.621 7.7 7.7 0 0 1 -2.439-.402z"
       id="path14"
       style="fill:#000000" />
    <path
       d="m136.808 30.778a8.852 8.852 0 0 1 -2.242-1.115.376.376 0 0 1 -.161-.241.427.427 0 0 1 .023-.311l.805-1.449a.458.458 0 0 1 .437-.275.682.682 0 0 1 .345.092 6.141 6.141 0 0 0 3.22 1.081 2.9 2.9 0 0 0 1.92-.587 1.9 1.9 0 0 0 .7-1.529 1.61 1.61 0 0 0 -.345-1.047 2.88 2.88 0 0 0 -.92-.725q-.575-.3-1.679-.735l-.667-.276a8.562 8.562 0 0 1 -2.633-1.7 4.035 4.035 0 0 1 -1.069-3.036 4.825 4.825 0 0 1 .632-2.483 4.372 4.372 0 0 1 1.76-1.68 5.462 5.462 0 0 1 2.6-.6 7.655 7.655 0 0 1 2.427.4 7.772 7.772 0 0 1 2.173 1.116.378.378 0 0 1 .161.241.43.43 0 0 1 -.023.311l-.759 1.449a.458.458 0 0 1 -.437.275.68.68 0 0 1 -.345-.092 7.148 7.148 0 0 0 -1.714-.828 5.023 5.023 0 0 0 -1.46-.253 2.287 2.287 0 0 0 -1.633.563 2.016 2.016 0 0 0 .058 2.921 7.554 7.554 0 0 0 2.1 1.185q.207.069 1.575.633a5.033 5.033 0 0 1 2.174 1.645 4.155 4.155 0 0 1 .8 2.553 4.8 4.8 0 0 1 -.678 2.542 4.63 4.63 0 0 1 -1.9 1.736 6.1 6.1 0 0 1 -2.806.621 7.7 7.7 0 0 1 -2.439-.402z"
       id="path16"
       style="fill:#000000" />
    <path
       d="m147.917 30.618a.956.956 0 0 1 -.288-.7v-14.469a.983.983 0 0 1 .989-.989h7.843a.472.472 0 0 1 .482.483v1.725a.471.471 0 0 1 -.482.483h-6.026v3.91h4.485a.471.471 0 0 1 .483.482v1.634a.471.471 0 0 1 -.483.482h-4.485v4.554h6.026a.472.472 0 0 1 .482.483v1.725a.471.471 0 0 1 -.482.483h-7.843a.954.954 0 0 1 -.701-.286z"
       id="path18"
       style="fill:#000000" />
    <path
       d="m160.257 30.767a.47.47 0 0 1 -.138-.346v-15.294a.669.669 0 0 1 .667-.667h1.886a.711.711 0 0 1 .621.346l5.52 9.338 1.1 1.932v-11.133a.472.472 0 0 1 .483-.483h1.655a.472.472 0 0 1 .483.483v15.295a.667.667 0 0 1 -.667.667h-1.909a.713.713 0 0 1 -.621-.345l-5.7-9.66-.9-1.564v11.086a.455.455 0 0 1 -.139.356.488.488 0 0 1 -.345.127h-1.653a.468.468 0 0 1 -.343-.138z"
       id="path20"
       style="fill:#000000" />
    <path
       d="m177.931 30.778a8.86 8.86 0 0 1 -2.242-1.115.378.378 0 0 1 -.161-.241.43.43 0 0 1 .023-.311l.8-1.449a.458.458 0 0 1 .438-.275.683.683 0 0 1 .345.092 6.14 6.14 0 0 0 3.22 1.081 2.9 2.9 0 0 0 1.921-.587 1.9 1.9 0 0 0 .7-1.529 1.613 1.613 0 0 0 -.345-1.047 2.891 2.891 0 0 0 -.92-.725q-.576-.3-1.68-.735l-.667-.276a8.565 8.565 0 0 1 -2.633-1.7 4.035 4.035 0 0 1 -1.069-3.036 4.824 4.824 0 0 1 .632-2.483 4.378 4.378 0 0 1 1.76-1.68 5.462 5.462 0 0 1 2.6-.6 7.653 7.653 0 0 1 2.427.4 7.782 7.782 0 0 1 2.174 1.116.381.381 0 0 1 .161.241.43.43 0 0 1 -.023.311l-.759 1.449a.459.459 0 0 1 -.437.275.683.683 0 0 1 -.345-.092 7.13 7.13 0 0 0 -1.714-.828 5.02 5.02 0 0 0 -1.46-.253 2.287 2.287 0 0 0 -1.633.563 2.015 2.015 0 0 0 .058 2.921 7.539 7.539 0 0 0 2.1 1.185q.207.069 1.575.633a5.033 5.033 0 0 1 2.174 1.645 4.158 4.158 0 0 1 .8 2.553 4.8 4.8 0 0 1 -.679 2.542 4.627 4.627 0 0 1 -1.9 1.736 6.1 6.1 0 0 1 -2.806.621 7.7 7.7 0 0 1 -2.435-.402z"
       id="path22"
       style="fill:#000000" />
    <path
       d="m191.455 30.388a6.056 6.056 0 0 1 -2.173-2.208 5.975 5.975 0 0 1 -.806-3.048v-4.9a5.975 5.975 0 0 1 .806-3.048 6.063 6.063 0 0 1 2.173-2.208 5.712 5.712 0 0 1 2.979-.816 6.643 6.643 0 0 1 2.622.518 5.559 5.559 0 0 1 2.07 1.507.58.58 0 0 1 .138.391.739.739 0 0 1 -.184.46l-1.012 1.059a.534.534 0 0 1 -.368.184.545.545 0 0 1 -.414-.207 3.646 3.646 0 0 0 -2.829-1.219 2.881 2.881 0 0 0 -1.575.46 3.487 3.487 0 0 0 -1.6 2.921v4.9a3.487 3.487 0 0 0 1.6 2.922 2.881 2.881 0 0 0 1.575.46 3.643 3.643 0 0 0 2.829-1.22.526.526 0 0 1 .391-.207.55.55 0 0 1 .392.185l1.012 1.058a.639.639 0 0 1 .207.46.611.611 0 0 1 -.138.368 5.892 5.892 0 0 1 -2.094 1.518 6.516 6.516 0 0 1 -2.622.529 5.712 5.712 0 0 1 -2.979-.819z"
       id="path24"
       style="fill:#000000" />
    <path
       d="m202.369 30.767a.467.467 0 0 1 -.139-.346v-15.478a.474.474 0 0 1 .483-.483h1.84a.474.474 0 0 1 .483.483v6.21h6.808v-6.21a.472.472 0 0 1 .483-.483h1.84a.472.472 0 0 1 .482.483v15.479a.471.471 0 0 1 -.482.483h-1.84a.471.471 0 0 1 -.483-.483v-6.622h-6.808v6.624a.472.472 0 0 1 -.483.483h-1.84a.468.468 0 0 1 -.344-.14z"
       id="path26"
       style="fill:#000000" />
    <path
       d="m217.479 30.756a.5.5 0 0 1 -.161-.38.587.587 0 0 1 .023-.184l4.991-15.341a.676.676 0 0 1 .264-.368.762.762 0 0 1 .449-.138h1.794a.761.761 0 0 1 .448.138.678.678 0 0 1 .265.368l4.991 15.341a.621.621 0 0 1 .022.184.5.5 0 0 1 -.161.38.553.553 0 0 1 -.391.149h-1.656a.716.716 0 0 1 -.448-.149.73.73 0 0 1 -.265-.38l-1.035-3.312h-5.382l-1.035 3.312a.73.73 0 0 1 -.265.38.716.716 0 0 1 -.448.149h-1.609a.554.554 0 0 1 -.391-.149zm8.326-6.291-1.886-6.141-1.887 6.141h3.772z"
       id="path28"
       style="fill:#000000" />
    <path
       d="m233.326 30.767a.47.47 0 0 1 -.138-.346v-14.972a.982.982 0 0 1 .989-.989h7.843a.472.472 0 0 1 .482.483v1.725a.471.471 0 0 1 -.482.483h-6.026v4.3h4.485a.471.471 0 0 1 .482.483v1.633a.472.472 0 0 1 -.482.483h-4.485v6.37a.471.471 0 0 1 -.482.483h-1.841a.468.468 0 0 1 -.345-.136z"
       id="path30"
       style="fill:#000000" />
    <path
       d="m249.173 30.767a.47.47 0 0 1 -.138-.346v-13.27h-3.864a.472.472 0 0 1 -.483-.483v-1.725a.474.474 0 0 1 .483-.483h10.529a.472.472 0 0 1 .482.483v1.725a.471.471 0 0 1 -.482.483h-3.864v13.271a.471.471 0 0 1 -.483.483h-1.84a.468.468 0 0 1 -.34-.138z"
       id="path32"
       style="fill:#000000" />
    <path
       d="m260.546 30.778a8.86 8.86 0 0 1 -2.242-1.115.378.378 0 0 1 -.161-.241.43.43 0 0 1 .023-.311l.8-1.449a.458.458 0 0 1 .438-.275.683.683 0 0 1 .345.092 6.14 6.14 0 0 0 3.22 1.081 2.9 2.9 0 0 0 1.921-.587 1.9 1.9 0 0 0 .7-1.529 1.613 1.613 0 0 0 -.345-1.047 2.891 2.891 0 0 0 -.92-.725q-.576-.3-1.68-.735l-.667-.276a8.565 8.565 0 0 1 -2.633-1.7 4.035 4.035 0 0 1 -1.069-3.036 4.824 4.824 0 0 1 .632-2.483 4.378 4.378 0 0 1 1.76-1.68 5.462 5.462 0 0 1 2.6-.6 7.653 7.653 0 0 1 2.427.4 7.782 7.782 0 0 1 2.174 1.116.381.381 0 0 1 .161.241.43.43 0 0 1 -.023.311l-.759 1.449a.459.459 0 0 1 -.437.275.683.683 0 0 1 -.345-.092 7.13 7.13 0 0 0 -1.714-.828 5.02 5.02 0 0 0 -1.46-.253 2.287 2.287 0 0 0 -1.633.563 2.015 2.015 0 0 0 .058 2.921 7.539 7.539 0 0 0 2.1 1.185q.207.069 1.575.633a5.033 5.033 0 0 1 2.174 1.645 4.158 4.158 0 0 1 .8 2.553 4.8 4.8 0 0 1 -.679 2.542 4.627 4.627 0 0 1 -1.9 1.736 6.1 6.1 0 0 1 -2.806.621 7.7 7.7 0 0 1 -2.435-.402z"
       id="path34"
       style="fill:#000000" />
    <path
       d="m98.042 57.905a.807.807 0 0 1 -.667-.322l-5.175-6.555h-.874v6.394a.471.471 0 0 1 -.483.483h-1.843a.471.471 0 0 1 -.483-.483v-15.479a.473.473 0 0 1 .483-.483h1.84a.473.473 0 0 1 .483.483v6.487h.759l5.29-6.647a.829.829 0 0 1 .69-.322h2.093a.453.453 0 0 1 .333.127.4.4 0 0 1 .126.287.524.524 0 0 1 -.115.3l-5.98 7.406 6 7.636a.527.527 0 0 1 .115.3.4.4 0 0 1 -.126.287.453.453 0 0 1 -.333.127z"
       id="path36"
       style="fill:#000000" />
    <path
       d="m105.149 57.388a6.061 6.061 0 0 1 -2.219-2.208 5.908 5.908 0 0 1 -.817-3.048v-4.9a5.908 5.908 0 0 1 .817-3.048 6.069 6.069 0 0 1 2.219-2.208 6.139 6.139 0 0 1 6.118 0 6.076 6.076 0 0 1 2.219 2.208 5.912 5.912 0 0 1 .816 3.048v4.9a5.912 5.912 0 0 1 -.816 3.048 6.069 6.069 0 0 1 -2.219 2.208 6.139 6.139 0 0 1 -6.118 0zm4.692-2.334a3.407 3.407 0 0 0 1.208-1.242 3.318 3.318 0 0 0 .449-1.68v-4.9a3.317 3.317 0 0 0 -.449-1.679 3.407 3.407 0 0 0 -1.208-1.242 3.128 3.128 0 0 0 -3.266 0 3.407 3.407 0 0 0 -1.208 1.242 3.317 3.317 0 0 0 -.449 1.679v4.9a3.318 3.318 0 0 0 .449 1.68 3.407 3.407 0 0 0 1.208 1.242 3.128 3.128 0 0 0 3.266 0z"
       id="path38"
       style="fill:#000000" />
    <path
       d="m124.8 57.905a.675.675 0 0 1 -.264-.368l-3.036-9.292-.575-2.07-.23 2.14-.989 9.016a.7.7 0 0 1 -.23.414.613.613 0 0 1 -.414.161h-1.725a.487.487 0 0 1 -.391-.161.534.534 0 0 1 -.115-.414l1.909-15.249a.707.707 0 0 1 .241-.494.782.782 0 0 1 .541-.2h2.093a.718.718 0 0 1 .448.149.735.735 0 0 1 .265.379l3.45 10.6.46 1.587.46-1.564 3.475-10.639a.675.675 0 0 1 .265-.368.758.758 0 0 1 .448-.138h1.909a.784.784 0 0 1 .541.2.713.713 0 0 1 .242.494l1.909 15.249a.536.536 0 0 1 -.115.414.488.488 0 0 1 -.391.161h-1.794a.641.641 0 0 1 -.437-.161.579.579 0 0 1 -.207-.391l-1.035-9.2-.23-1.979-.6 2.162-2.967 9.178a.731.731 0 0 1 -.265.379.718.718 0 0 1 -.448.149h-1.748a.76.76 0 0 1 -.45-.144z"
       id="path40"
       style="fill:#000000" />
    <path
       d="m146.123 57.905a.675.675 0 0 1 -.264-.368l-3.036-9.292-.575-2.07-.23 2.14-.989 9.016a.7.7 0 0 1 -.23.414.613.613 0 0 1 -.414.161h-1.725a.487.487 0 0 1 -.391-.161.534.534 0 0 1 -.115-.414l1.909-15.249a.707.707 0 0 1 .241-.494.782.782 0 0 1 .541-.2h2.093a.718.718 0 0 1 .448.149.735.735 0 0 1 .265.379l3.45 10.6.46 1.587.46-1.564 3.473-10.639a.675.675 0 0 1 .265-.368.758.758 0 0 1 .448-.138h1.909a.784.784 0 0 1 .541.2.713.713 0 0 1 .242.494l1.909 15.249a.534.534 0 0 1 -.114.414.489.489 0 0 1 -.392.161h-1.794a.641.641 0 0 1 -.437-.161.579.579 0 0 1 -.207-.391l-1.035-9.2-.23-1.979-.599 2.156-2.967 9.178a.731.731 0 0 1 -.265.379.718.718 0 0 1 -.448.149h-1.748a.76.76 0 0 1 -.449-.138z"
       id="path42"
       style="fill:#000000" />
    <path
       d="m162.66 57.353a5.993 5.993 0 0 1 -2.185-2.335 6.98 6.98 0 0 1 -.794-3.347v-9.728a.474.474 0 0 1 .483-.483h1.836a.474.474 0 0 1 .483.483v9.844a3.843 3.843 0 0 0 .908 2.668 3.334 3.334 0 0 0 4.784 0 3.843 3.843 0 0 0 .908-2.668v-9.844a.472.472 0 0 1 .483-.483h1.84a.472.472 0 0 1 .482.483v9.729a7.046 7.046 0 0 1 -.793 3.358 6.079 6.079 0 0 1 -8.435 2.323z"
       id="path44"
       style="fill:#000000" />
    <path
       d="m175.689 57.767a.47.47 0 0 1 -.138-.346v-15.294a.669.669 0 0 1 .667-.667h1.882a.711.711 0 0 1 .621.346l5.52 9.338 1.1 1.932v-11.133a.472.472 0 0 1 .483-.483h1.655a.472.472 0 0 1 .483.483v15.295a.667.667 0 0 1 -.667.667h-1.895a.713.713 0 0 1 -.621-.345l-5.7-9.66-.9-1.564v11.086a.455.455 0 0 1 -.139.356.488.488 0 0 1 -.345.127h-1.656a.468.468 0 0 1 -.35-.138z"
       id="path46"
       style="fill:#000000" />
    <path
       d="m191.283 57.767a.47.47 0 0 1 -.138-.346v-1.586a.471.471 0 0 1 .482-.482h1.955v-11.339h-1.955a.472.472 0 0 1 -.482-.483v-1.588a.472.472 0 0 1 .482-.483h6.716a.472.472 0 0 1 .483.483v1.587a.472.472 0 0 1 -.483.483h-1.953v11.339h1.954a.471.471 0 0 1 .483.482v1.587a.471.471 0 0 1 -.483.483h-6.716a.468.468 0 0 1 -.345-.137z"
       id="path48"
       style="fill:#000000" />
    <path
       d="m211.5 57.905a.808.808 0 0 1 -.667-.322l-5.175-6.555h-.874v6.394a.471.471 0 0 1 -.482.483h-1.841a.471.471 0 0 1 -.482-.483v-15.479a.472.472 0 0 1 .482-.483h1.839a.472.472 0 0 1 .482.483v6.487h.759l5.29-6.647a.83.83 0 0 1 .69-.322h2.093a.455.455 0 0 1 .334.127.4.4 0 0 1 .126.287.52.52 0 0 1 -.115.3l-5.979 7.406 6 7.636a.53.53 0 0 1 .115.3.4.4 0 0 1 -.127.287.451.451 0 0 1 -.333.127z"
       id="path50"
       style="fill:#000000" />
    <path
       d="m215.938 57.756a.5.5 0 0 1 -.161-.38.587.587 0 0 1 .023-.184l4.991-15.341a.676.676 0 0 1 .264-.368.762.762 0 0 1 .449-.138h1.796a.761.761 0 0 1 .448.138.678.678 0 0 1 .265.368l4.987 15.341a.621.621 0 0 1 .022.184.5.5 0 0 1 -.161.38.553.553 0 0 1 -.391.149h-1.656a.716.716 0 0 1 -.448-.149.73.73 0 0 1 -.265-.38l-1.035-3.312h-5.382l-1.035 3.312a.73.73 0 0 1 -.265.38.716.716 0 0 1 -.448.149h-1.606a.554.554 0 0 1 -.392-.149zm8.326-6.291-1.886-6.141-1.887 6.141h3.772z"
       id="path52"
       style="fill:#000000" />
    <path
       d="m233.648 57.767a.47.47 0 0 1 -.138-.346v-13.27h-3.864a.471.471 0 0 1 -.482-.483v-1.725a.472.472 0 0 1 .482-.483h10.534a.472.472 0 0 1 .483.483v1.725a.471.471 0 0 1 -.483.483h-3.863v13.271a.472.472 0 0 1 -.483.483h-1.84a.47.47 0 0 1 -.346-.138z"
       id="path54"
       style="fill:#000000" />
    <path
       d="m243.056 57.767a.47.47 0 0 1 -.138-.346v-1.586a.471.471 0 0 1 .482-.482h1.955v-11.339h-1.955a.472.472 0 0 1 -.482-.483v-1.588a.472.472 0 0 1 .482-.483h6.716a.472.472 0 0 1 .483.483v1.587a.472.472 0 0 1 -.483.483h-1.954v11.339h1.954a.471.471 0 0 1 .483.482v1.587a.471.471 0 0 1 -.483.483h-6.716a.468.468 0 0 1 -.344-.137z"
       id="path56"
       style="fill:#000000" />
    <path
       d="m255.935 57.388a6.06 6.06 0 0 1 -2.219-2.208 5.909 5.909 0 0 1 -.817-3.048v-4.9a5.909 5.909 0 0 1 .817-3.048 6.067 6.067 0 0 1 2.219-2.208 6.139 6.139 0 0 1 6.118 0 6.077 6.077 0 0 1 2.22 2.208 5.917 5.917 0 0 1 .816 3.048v4.9a5.917 5.917 0 0 1 -.816 3.048 6.07 6.07 0 0 1 -2.22 2.208 6.139 6.139 0 0 1 -6.118 0zm4.692-2.334a3.409 3.409 0 0 0 1.207-1.242 3.313 3.313 0 0 0 .449-1.68v-4.9a3.312 3.312 0 0 0 -.449-1.679 3.409 3.409 0 0 0 -1.207-1.242 3.128 3.128 0 0 0 -3.266 0 3.4 3.4 0 0 0 -1.208 1.242 3.321 3.321 0 0 0 -.448 1.679v4.9a3.322 3.322 0 0 0 .448 1.68 3.4 3.4 0 0 0 1.208 1.242 3.128 3.128 0 0 0 3.267 0z"
       id="path58"
       style="fill:#000000" />
    <path
       d="m268.471 57.767a.47.47 0 0 1 -.138-.346v-15.294a.669.669 0 0 1 .667-.667h1.886a.711.711 0 0 1 .621.346l5.52 9.338 1.1 1.932v-11.133a.472.472 0 0 1 .483-.483h1.655a.472.472 0 0 1 .483.483v15.295a.667.667 0 0 1 -.667.667h-1.909a.713.713 0 0 1 -.621-.345l-5.7-9.66-.9-1.564v11.086a.455.455 0 0 1 -.139.356.488.488 0 0 1 -.345.127h-1.656a.468.468 0 0 1 -.34-.138z"
       id="path60"
       style="fill:#000000" />
    <path
       d="m284.375 57.905a1.916 1.916 0 0 1 0-2.714 1.883 1.883 0 0 1 1.368-.552 1.8 1.8 0 0 1 1.334.563 1.913 1.913 0 0 1 0 2.69 1.8 1.8 0 0 1 -1.334.563 1.883 1.883 0 0 1 -1.368-.55z"
       id="path62"
       style="fill:#000000" />
    <path
       d="m290.953 57.618a.954.954 0 0 1 -.288-.7v-14.469a.984.984 0 0 1 .989-.989h4.508a6.242 6.242 0 0 1 5.509 3.174 6.436 6.436 0 0 1 .84 3.243v3.611a6.433 6.433 0 0 1 -.84 3.243 6.237 6.237 0 0 1 -5.509 3.174h-4.508a.953.953 0 0 1 -.701-.287zm5.094-2.4a3.537 3.537 0 0 0 1.829-.494 3.709 3.709 0 0 0 1.334-1.334 3.586 3.586 0 0 0 .494-1.852v-3.73a3.549 3.549 0 0 0 -.494-1.829 3.716 3.716 0 0 0 -1.334-1.334 3.546 3.546 0 0 0 -1.829-.494h-2.575v11.063h2.575z"
       id="path64"
       style="fill:#000000" />
    <path
       d="m305.948 57.618a.957.957 0 0 1 -.287-.7v-14.469a.982.982 0 0 1 .989-.989h7.843a.472.472 0 0 1 .482.483v1.725a.471.471 0 0 1 -.482.483h-6.026v3.91h4.485a.471.471 0 0 1 .482.482v1.634a.471.471 0 0 1 -.482.482h-4.485v4.554h6.026a.472.472 0 0 1 .482.483v1.725a.471.471 0 0 1 -.482.483h-7.843a.956.956 0 0 1 -.702-.286z"
       id="path66"
       style="fill:#000000" />
  </g>
  <path
     d="m0 0h72v72h-72z"
     fill="#ed2d1a"
     id="path70" />
  <circle
     cx="17.328"
     cy="36.666"
     fill="#fff"
     r="6.116"
     id="circle72" />
  <circle
     cx="33.605"
     cy="38.23"
     fill="#fff"
     r="2.924"
     id="circle74" />
  <circle
     cx="52.118"
     cy="22.985"
     fill="#fff"
     r="11.575"
     id="circle76" />
  <circle
     cx="25.697"
     cy="53.049"
     fill="#fff"
     r="4.046"
     id="circle78" />
  <circle
     cx="44.823"
     cy="56.297"
     fill="#fff"
     r="5.081"
     id="circle80" />
</svg>
